<svg version="1.1" id="Layer_1" xmlns="http://www.w3.org/2000/svg" xmlns:xlink="http://www.w3.org/1999/xlink" x="0px" y="0px"
	 width="100%" viewBox="0 0 536 434" enable-background="new 0 0 536 434" xml:space="preserve">
<path fill="#FEFEFE" opacity="1.000000" stroke="none" 
	d="
M387.000000,435.000000 
	C258.000031,435.000000 129.500061,435.000000 1.000046,435.000000 
	C1.000000,362.666718 1.000000,290.333435 1.000000,218.000137 
	C1.000000,145.666824 1.000000,73.333511 1.000000,1.000147 
	C179.666565,1.000098 358.333130,1.000098 536.999756,1.000049 
	C536.999878,145.666519 536.999878,290.333038 536.999939,434.999786 
	C487.166656,435.000000 437.333344,435.000000 387.000000,435.000000 
M349.144501,355.879547 
	C349.144501,355.879547 349.332581,355.697296 349.158569,356.462555 
	C350.131744,360.882996 351.733521,365.273376 351.946625,369.730133 
	C352.383759,378.871979 352.154724,388.050415 352.039490,397.211761 
	C351.989319,401.198456 353.585846,403.089355 357.661194,402.955963 
	C361.488800,402.830658 365.347809,402.660034 369.149353,402.999084 
	C373.893372,403.422180 375.086945,401.441132 375.082367,396.941681 
	C374.982544,298.649994 374.978485,200.358124 375.101746,102.066475 
	C375.107941,97.105484 373.361176,95.902634 368.687866,95.944748 
	C346.199219,96.147430 323.707703,96.031677 301.217224,96.033218 
	C293.357300,96.033760 293.060944,96.334152 293.060883,104.199730 
	C293.060425,199.159607 293.104645,294.119507 293.014130,389.079315 
	C293.000244,403.649719 292.483917,402.957458 307.357086,402.979462 
	C310.813171,402.984558 312.104767,401.685791 312.063324,398.259399 
	C311.940430,388.098511 312.037872,377.935059 311.976990,367.773041 
	C311.971527,366.858368 311.444946,365.946777 311.052917,364.377899 
	C311.135498,363.946106 311.218079,363.514343 311.964630,362.952179 
	C312.471649,362.541748 313.252411,362.231110 313.443909,361.705719 
	C315.671173,355.594727 320.477448,353.710297 326.374359,354.014404 
	C334.021698,354.408875 341.653717,355.099976 349.144501,355.879547 
M120.100166,74.500000 
	C120.100159,66.835121 120.107277,59.170238 120.097961,51.505375 
	C120.090126,45.060631 120.044022,45.022346 113.770493,45.022346 
	C92.108932,45.022335 70.447372,45.025654 48.785812,45.019951 
	C41.885250,45.018135 41.886353,45.007072 41.886456,52.150711 
	C41.888058,164.457611 41.890282,276.764496 41.889427,389.071411 
	C41.889336,401.200317 41.880917,401.061340 54.005280,401.061890 
	C57.991833,401.062042 59.230961,399.624756 59.156704,395.773773 
	C58.970421,386.113098 59.020203,376.445190 59.137638,366.782166 
	C59.241302,358.252258 64.438019,353.057861 72.795700,352.952667 
	C78.293427,352.883453 83.793091,352.895386 89.291199,352.945709 
	C97.617081,353.021881 102.899292,358.327118 102.925346,366.622894 
	C102.951523,374.954163 102.921425,383.285614 102.924370,391.616974 
	C102.928032,401.961914 102.037994,400.957123 112.349861,400.970062 
	C120.097382,400.979767 120.099693,400.982086 120.099739,393.425171 
	C120.100357,287.450104 120.100288,181.475052 120.100166,74.500000 
M172.741043,400.967194 
	C177.323502,400.967194 181.905945,400.967194 186.784470,400.967194 
	C186.784470,388.609558 186.690506,377.291046 186.816223,365.974976 
	C186.905777,357.913300 192.221786,352.889008 200.396988,352.832123 
	C205.229568,352.798523 210.062805,352.806763 214.895432,352.841095 
	C224.866837,352.911896 229.492981,357.622742 229.481323,367.672363 
	C229.470306,377.171356 229.333130,386.672607 229.531097,396.167053 
	C229.564423,397.765015 230.900757,400.618164 231.831009,400.701385 
	C236.871948,401.152496 241.974442,400.915405 246.950058,400.915405 
	C246.950058,395.916718 246.950089,391.950043 246.950058,387.983398 
	C246.949722,327.322388 246.901321,266.661285 247.043457,206.000626 
	C247.054398,201.334747 245.965988,199.722931 241.017151,199.782761 
	C219.022415,200.048599 197.022659,199.894684 175.024719,199.899124 
	C168.145706,199.900513 168.141998,199.909912 168.142014,206.569107 
	C168.142166,269.063293 168.143661,331.557465 168.145172,394.051636 
	C168.145203,395.218170 167.722641,396.653870 168.249390,397.490326 
	C169.111984,398.860077 170.593307,399.840179 172.741043,400.967194 
M472.500488,264.848419 
	C457.015228,264.841431 441.529388,264.903229 426.045166,264.773315 
	C422.675690,264.745087 421.340668,265.713684 421.348389,269.297729 
	C421.440063,311.756958 421.426117,354.216492 421.350342,396.675781 
	C421.344452,399.973175 422.071045,401.692963 425.815704,401.292847 
	C428.779358,400.976166 431.835297,400.932220 434.791260,401.275269 
	C439.031464,401.767365 440.362610,400.172729 440.263611,395.993225 
	C440.031006,386.174927 440.087463,376.345398 440.237793,366.523682 
	C440.370270,357.869720 445.085724,353.243073 453.583649,353.142090 
	C458.908630,353.078796 464.235809,353.079559 469.560608,353.153351 
	C477.652283,353.265472 482.616150,358.122070 482.751251,366.210449 
	C482.876373,373.701233 482.783539,381.195709 482.783081,388.688538 
	C482.782349,401.253906 482.784698,401.078461 495.301300,401.333801 
	C499.457428,401.418640 500.722321,400.249023 500.684326,396.063568 
	C500.498230,375.584839 500.607666,355.103424 500.610992,334.622955 
	C500.614410,313.476471 500.496460,292.328766 500.709930,271.184418 
	C500.757874,266.434509 499.917358,264.257599 494.469452,264.700684 
	C487.521759,265.265778 480.493866,264.844971 472.500488,264.848419 
z"/>
<path fill="#78DCFA" opacity="1.000000" stroke="none" 
	d="
M120.100273,75.000000 
	C120.100288,181.475052 120.100357,287.450104 120.099739,393.425171 
	C120.099693,400.982086 120.097382,400.979767 112.349861,400.970062 
	C102.037994,400.957123 102.928032,401.961914 102.924370,391.616974 
	C102.921425,383.285614 102.951523,374.954163 102.925346,366.622894 
	C102.899292,358.327118 97.617081,353.021881 89.291199,352.945709 
	C83.793091,352.895386 78.293427,352.883453 72.795700,352.952667 
	C64.438019,353.057861 59.241302,358.252258 59.137638,366.782166 
	C59.020203,376.445190 58.970421,386.113098 59.156704,395.773773 
	C59.230961,399.624756 57.991833,401.062042 54.005280,401.061890 
	C41.880917,401.061340 41.889336,401.200317 41.889427,389.071411 
	C41.890282,276.764496 41.888058,164.457611 41.886456,52.150711 
	C41.886353,45.007072 41.885250,45.018135 48.785812,45.019951 
	C70.447372,45.025654 92.108932,45.022335 113.770493,45.022346 
	C120.044022,45.022346 120.090126,45.060631 120.097961,51.505375 
	C120.107277,59.170238 120.100159,66.835121 120.100273,75.000000 
M80.569565,318.042725 
	C71.476158,318.591034 65.696426,325.002716 66.038216,334.162933 
	C66.334938,342.115265 72.761528,348.003906 81.122971,347.984924 
	C89.777893,347.965271 95.818527,342.294586 95.977570,334.040100 
	C96.159470,324.599701 90.672974,318.568573 80.569565,318.042725 
z"/>
<path fill="#B32B38" opacity="1.000000" stroke="none" 
	d="
M311.300659,363.082550 
	C311.218079,363.514343 311.135498,363.946106 310.843445,365.016174 
	C310.558228,375.644958 310.337402,385.637543 310.479492,395.624908 
	C310.534882,399.517670 309.286865,401.259827 305.318573,400.779144 
	C304.168579,400.639832 302.961945,400.592590 301.825928,400.777466 
	C296.618744,401.624847 295.511078,399.312500 295.518005,394.363708 
	C295.653412,297.706848 295.636993,201.049683 295.506927,104.392776 
	C295.500641,99.737244 296.585266,97.983589 301.551025,98.036713 
	C323.712982,98.273781 345.879517,98.236061 368.042664,98.067406 
	C372.319794,98.034859 373.379364,99.587440 373.375580,103.632484 
	C373.285065,200.456085 373.305481,297.279785 373.305267,394.103485 
	C373.305267,394.936737 373.245941,395.773834 373.305847,396.602509 
	C373.515717,399.505676 372.408356,400.944427 369.284943,400.788452 
	C365.960602,400.622467 362.608917,400.588043 359.291199,400.816406 
	C355.760681,401.059418 354.631683,399.615936 354.688416,396.182129 
	C354.848114,386.519043 354.816040,376.850922 354.717102,367.186218 
	C354.670258,362.609955 353.959076,358.196960 349.332581,355.697296 
	C349.332581,355.697296 349.144501,355.879547 349.090027,355.439636 
	C348.362427,354.520874 347.696136,353.635864 347.015106,353.624390 
	C337.497559,353.463898 327.917755,352.777771 318.487610,353.659119 
	C314.528503,354.029175 311.212799,358.019135 311.300659,363.082550 
M331.654358,348.085358 
	C343.051025,348.933960 350.628265,337.055450 346.525757,327.493134 
	C343.446716,320.316284 336.252777,316.789337 328.561432,318.535797 
	C322.580292,319.893921 317.309174,326.457489 317.328003,332.738922 
	C317.347321,339.179840 322.006531,347.364502 331.654358,348.085358 
z"/>
<path fill="#EE8B3E" opacity="1.000000" stroke="none" 
	d="
M172.277344,400.975891 
	C170.593307,399.840179 169.111984,398.860077 168.249390,397.490326 
	C167.722641,396.653870 168.145203,395.218170 168.145172,394.051636 
	C168.143661,331.557465 168.142166,269.063293 168.142014,206.569107 
	C168.141998,199.909912 168.145706,199.900513 175.024719,199.899124 
	C197.022659,199.894684 219.022415,200.048599 241.017151,199.782761 
	C245.965988,199.722931 247.054398,201.334747 247.043457,206.000626 
	C246.901321,266.661285 246.949722,327.322388 246.950058,387.983398 
	C246.950089,391.950043 246.950058,395.916718 246.950058,400.915405 
	C241.974442,400.915405 236.871948,401.152496 231.831009,400.701385 
	C230.900757,400.618164 229.564423,397.765015 229.531097,396.167053 
	C229.333130,386.672607 229.470306,377.171356 229.481323,367.672363 
	C229.492981,357.622742 224.866837,352.911896 214.895432,352.841095 
	C210.062805,352.806763 205.229568,352.798523 200.396988,352.832123 
	C192.221786,352.889008 186.905777,357.913300 186.816223,365.974976 
	C186.690506,377.291046 186.784470,388.609558 186.784470,400.967194 
	C181.905945,400.967194 177.323502,400.967194 172.277344,400.975891 
M211.758743,347.733643 
	C212.840286,347.302490 213.955475,346.939972 214.997726,346.428741 
	C220.683868,343.639618 223.952682,337.170441 223.026077,330.623413 
	C222.180634,324.649902 216.997650,319.374969 210.881134,318.263062 
	C204.549316,317.112030 198.020660,320.383087 194.944748,325.983490 
	C192.088852,331.183319 192.305573,336.201202 195.455200,341.085663 
	C199.087646,346.718872 204.396942,348.760986 211.758743,347.733643 
z"/>
<path fill="#ECCDD1" opacity="1.000000" stroke="none" 
	d="
M349.245575,356.079926 
	C353.959076,358.196960 354.670258,362.609955 354.717102,367.186218 
	C354.816040,376.850922 354.848114,386.519043 354.688416,396.182129 
	C354.631683,399.615936 355.760681,401.059418 359.291199,400.816406 
	C362.608917,400.588043 365.960602,400.622467 369.284943,400.788452 
	C372.408356,400.944427 373.515717,399.505676 373.305847,396.602509 
	C373.245941,395.773834 373.305267,394.936737 373.305267,394.103485 
	C373.305481,297.279785 373.285065,200.456085 373.375580,103.632484 
	C373.379364,99.587440 372.319794,98.034859 368.042664,98.067406 
	C345.879517,98.236061 323.712982,98.273781 301.551025,98.036713 
	C296.585266,97.983589 295.500641,99.737244 295.506927,104.392776 
	C295.636993,201.049683 295.653412,297.706848 295.518005,394.363708 
	C295.511078,399.312500 296.618744,401.624847 301.825928,400.777466 
	C302.961945,400.592590 304.168579,400.639832 305.318573,400.779144 
	C309.286865,401.259827 310.534882,399.517670 310.479492,395.624908 
	C310.337402,385.637543 310.558228,375.644958 310.897156,365.344116 
	C311.444946,365.946777 311.971527,366.858368 311.976990,367.773041 
	C312.037872,377.935059 311.940430,388.098511 312.063324,398.259399 
	C312.104767,401.685791 310.813171,402.984558 307.357086,402.979462 
	C292.483917,402.957458 293.000244,403.649719 293.014130,389.079315 
	C293.104645,294.119507 293.060425,199.159607 293.060883,104.199730 
	C293.060944,96.334152 293.357300,96.033760 301.217224,96.033218 
	C323.707703,96.031677 346.199219,96.147430 368.687866,95.944748 
	C373.361176,95.902634 375.107941,97.105484 375.101746,102.066475 
	C374.978485,200.358124 374.982544,298.649994 375.082367,396.941681 
	C375.086945,401.441132 373.893372,403.422180 369.149353,402.999084 
	C365.347809,402.660034 361.488800,402.830658 357.661194,402.955963 
	C353.585846,403.089355 351.989319,401.198456 352.039490,397.211761 
	C352.154724,388.050415 352.383759,378.871979 351.946625,369.730133 
	C351.733521,365.273376 350.131744,360.882996 349.245575,356.079926 
z"/>
<path fill="#4545A8" opacity="1.000000" stroke="none" 
	d="
M473.000519,264.848755 
	C480.493866,264.844971 487.521759,265.265778 494.469452,264.700684 
	C499.917358,264.257599 500.757874,266.434509 500.709930,271.184418 
	C500.496460,292.328766 500.614410,313.476471 500.610992,334.622955 
	C500.607666,355.103424 500.498230,375.584839 500.684326,396.063568 
	C500.722321,400.249023 499.457428,401.418640 495.301300,401.333801 
	C482.784698,401.078461 482.782349,401.253906 482.783081,388.688538 
	C482.783539,381.195709 482.876373,373.701233 482.751251,366.210449 
	C482.616150,358.122070 477.652283,353.265472 469.560608,353.153351 
	C464.235809,353.079559 458.908630,353.078796 453.583649,353.142090 
	C445.085724,353.243073 440.370270,357.869720 440.237793,366.523682 
	C440.087463,376.345398 440.031006,386.174927 440.263611,395.993225 
	C440.362610,400.172729 439.031464,401.767365 434.791260,401.275269 
	C431.835297,400.932220 428.779358,400.976166 425.815704,401.292847 
	C422.071045,401.692963 421.344452,399.973175 421.350342,396.675781 
	C421.426117,354.216492 421.440063,311.756958 421.348389,269.297729 
	C421.340668,265.713684 422.675690,264.745087 426.045166,264.773315 
	C441.529388,264.903229 457.015228,264.841431 473.000519,264.848755 
M499.021484,373.500000 
	C499.023621,339.676575 499.020752,305.853149 499.037354,272.029724 
	C499.038666,269.321503 499.521973,266.804047 495.213226,266.835083 
	C472.554352,266.998474 449.893585,266.955658 427.233826,266.877838 
	C423.876556,266.866333 422.779053,268.350861 422.991211,271.439087 
	C423.309540,276.072968 423.776123,280.711884 423.784515,285.349365 
	C423.849762,321.505341 423.815796,357.661530 423.833069,393.817627 
	C423.833984,395.732758 424.020721,397.647797 424.124146,399.623932 
	C428.981720,399.623932 433.236298,399.623932 438.114777,399.623932 
	C438.114777,397.540405 438.113708,395.760712 438.114990,393.981018 
	C438.121582,384.650513 438.079559,375.319611 438.150238,365.989594 
	C438.215302,357.406158 444.166351,351.310638 452.804993,351.087402 
	C458.798950,350.932465 464.802246,350.974579 470.797913,351.096954 
	C477.385620,351.231415 482.563690,355.235382 483.941620,361.827637 
	C484.779541,365.836548 484.804291,370.051392 484.867828,374.178772 
	C484.997559,382.605072 484.906708,391.034790 484.906708,399.629700 
	C489.923920,399.629700 494.166046,399.629700 499.021545,399.629700 
	C499.021545,391.059418 499.021545,382.779694 499.021484,373.500000 
z"/>
<path fill="#ECCDD1" opacity="1.000000" stroke="none" 
	d="
M311.632629,363.017365 
	C311.212799,358.019135 314.528503,354.029175 318.487610,353.659119 
	C327.917755,352.777771 337.497559,353.463898 347.015106,353.624390 
	C347.696136,353.635864 348.362427,354.520874 349.163940,355.331573 
	C341.653717,355.099976 334.021698,354.408875 326.374359,354.014404 
	C320.477448,353.710297 315.671173,355.594727 313.443909,361.705719 
	C313.252411,362.231110 312.471649,362.541748 311.632629,363.017365 
z"/>
<path fill="#F5FCFC" opacity="1.000000" stroke="none" 
	d="
M80.997314,318.042908 
	C90.672974,318.568573 96.159470,324.599701 95.977570,334.040100 
	C95.818527,342.294586 89.777893,347.965271 81.122971,347.984924 
	C72.761528,348.003906 66.334938,342.115265 66.038216,334.162933 
	C65.696426,325.002716 71.476158,318.591034 80.997314,318.042908 
z"/>
<path fill="#F9F3F3" opacity="1.000000" stroke="none" 
	d="
M331.231598,348.059814 
	C322.006531,347.364502 317.347321,339.179840 317.328003,332.738922 
	C317.309174,326.457489 322.580292,319.893921 328.561432,318.535797 
	C336.252777,316.789337 343.446716,320.316284 346.525757,327.493134 
	C350.628265,337.055450 343.051025,348.933960 331.231598,348.059814 
z"/>
<path fill="#FCF8F3" opacity="1.000000" stroke="none" 
	d="
M211.348572,347.809143 
	C204.396942,348.760986 199.087646,346.718872 195.455200,341.085663 
	C192.305573,336.201202 192.088852,331.183319 194.944748,325.983490 
	C198.020660,320.383087 204.549316,317.112030 210.881134,318.263062 
	C216.997650,319.374969 222.180634,324.649902 223.026077,330.623413 
	C223.952682,337.170441 220.683868,343.639618 214.997726,346.428741 
	C213.955475,346.939972 212.840286,347.302490 211.348572,347.809143 
z"/>
<path fill="#03088D" opacity="1.000000" stroke="none" 
	d="
M499.021515,374.000000 
	C499.021545,382.779694 499.021545,391.059418 499.021545,399.629700 
	C494.166046,399.629700 489.923920,399.629700 484.906708,399.629700 
	C484.906708,391.034790 484.997559,382.605072 484.867828,374.178772 
	C484.804291,370.051392 484.779541,365.836548 483.941620,361.827637 
	C482.563690,355.235382 477.385620,351.231415 470.797913,351.096954 
	C464.802246,350.974579 458.798950,350.932465 452.804993,351.087402 
	C444.166351,351.310638 438.215302,357.406158 438.150238,365.989594 
	C438.079559,375.319611 438.121582,384.650513 438.114990,393.981018 
	C438.113708,395.760712 438.114777,397.540405 438.114777,399.623932 
	C433.236298,399.623932 428.981720,399.623932 424.124146,399.623932 
	C424.020721,397.647797 423.833984,395.732758 423.833069,393.817627 
	C423.815796,357.661530 423.849762,321.505341 423.784515,285.349365 
	C423.776123,280.711884 423.309540,276.072968 422.991211,271.439087 
	C422.779053,268.350861 423.876556,266.866333 427.233826,266.877838 
	C449.893585,266.955658 472.554352,266.998474 495.213226,266.835083 
	C499.521973,266.804047 499.038666,269.321503 499.037354,272.029724 
	C499.020752,305.853149 499.023621,339.676575 499.021515,374.000000 
M473.999451,342.993469 
	C478.844574,337.540527 479.397186,332.276459 475.856506,325.303009 
	C473.047455,319.770477 466.197205,315.425659 460.569519,316.274475 
	C448.871155,318.038910 440.813202,328.926025 446.659821,340.430328 
	C450.746277,348.471252 462.740173,354.619629 471.876862,345.127747 
	C472.396942,344.547302 472.916992,343.966858 473.999451,342.993469 
z"/>
<path fill="#5252AA" opacity="1.000000" stroke="none" 
	d="
M471.360840,345.412903 
	C462.740173,354.619629 450.746277,348.471252 446.659821,340.430328 
	C440.813202,328.926025 448.871155,318.038910 460.569519,316.274475 
	C466.197205,315.425659 473.047455,319.770477 475.856506,325.303009 
	C479.397186,332.276459 478.844574,337.540527 473.598206,343.083008 
	C473.196930,343.172516 472.957062,342.958344 473.044556,342.598389 
	C473.474701,341.671814 473.847778,341.121216 474.155334,340.536163 
	C477.849670,333.509430 475.981445,325.313843 469.725830,321.063843 
	C463.679474,316.955994 455.328125,317.890381 450.690216,323.193634 
	C445.338959,329.312653 445.515839,337.568420 451.125671,343.517334 
	C455.622681,348.286163 463.026459,348.804169 471.020264,345.028564 
	C471.134613,345.155945 471.360840,345.412903 471.360840,345.412903 
z"/>
<path fill="#5252AA" opacity="1.000000" stroke="none" 
	d="
M473.316986,343.279449 
	C472.916992,343.966858 472.396942,344.547302 471.618835,345.270325 
	C471.360840,345.412903 471.134613,345.155945 471.133240,344.754517 
	C471.740265,343.888153 472.348663,343.423248 472.957092,342.958374 
	C472.957062,342.958344 473.196930,343.172516 473.316986,343.279449 
z"/>
<path fill="#F3F4F8" opacity="1.000000" stroke="none" 
	d="
M473.044556,342.598389 
	C472.348663,343.423248 471.740265,343.888153 471.018890,344.627136 
	C463.026459,348.804169 455.622681,348.286163 451.125671,343.517334 
	C445.515839,337.568420 445.338959,329.312653 450.690216,323.193634 
	C455.328125,317.890381 463.679474,316.955994 469.725830,321.063843 
	C475.981445,325.313843 477.849670,333.509430 474.155334,340.536163 
	C473.847778,341.121216 473.474701,341.671814 473.044556,342.598389 
z"/>
</svg>